<?xml version="1.0" encoding="UTF-8"?>
<?xml-stylesheet href="https://cdnjs.cloudflare.com/ajax/libs/font-awesome/6.7.2/css/all.min.css" type="text/css"?>
<svg id="graph-67" width="100%" xmlns="http://www.w3.org/2000/svg" style="overflow: hidden; max-width: 100%; touch-action: none; user-select: none; -webkit-user-drag: none; -webkit-tap-highlight-color: rgba(0, 0, 0, 0); background-color: rgb(255, 255, 255);" role="graphics-document document" aria-roledescription="sequence" height="100%" xmlns:xlink="http://www.w3.org/1999/xlink" xmlns:ev="http://www.w3.org/2001/xml-events"><defs><symbol id="computer" width="24" height="24"><path transform="scale(.5)" d="M2 2v13h20v-13h-20zm18 11h-16v-9h16v9zm-10.228 6l.466-1h3.524l.467 1h-4.457zm14.228 3h-24l2-6h2.104l-1.33 4h18.45l-1.297-4h2.073l2 6zm-5-10h-14v-7h14v7z"></path></symbol></defs><defs><symbol id="database" fill-rule="evenodd" clip-rule="evenodd"><path transform="scale(.5)" d="M12.258.001l.256.004.255.005.253.008.251.01.249.012.247.015.246.016.242.019.241.02.239.023.236.024.233.027.231.028.229.031.225.032.223.034.22.036.217.038.214.04.211.041.208.043.205.045.201.046.198.048.194.05.191.051.187.053.183.054.18.056.175.057.172.059.168.06.163.061.16.063.155.064.15.066.074.033.073.033.071.034.07.034.069.035.068.035.067.035.066.035.064.036.064.036.062.036.06.036.06.037.058.037.058.037.055.038.055.038.053.038.052.038.051.039.05.039.048.039.047.039.045.04.044.04.043.04.041.04.04.041.039.041.037.041.036.041.034.041.033.042.032.042.03.042.029.042.027.042.026.043.024.043.023.043.021.043.02.043.018.044.017.043.015.044.013.044.012.044.011.045.009.044.007.045.006.045.004.045.002.045.001.045v17l-.001.045-.002.045-.004.045-.006.045-.007.045-.009.044-.011.045-.012.044-.013.044-.015.044-.017.043-.018.044-.02.043-.021.043-.023.043-.024.043-.026.043-.027.042-.029.042-.03.042-.032.042-.033.042-.034.041-.036.041-.037.041-.039.041-.04.041-.041.04-.043.04-.044.04-.045.04-.047.039-.048.039-.05.039-.051.039-.052.038-.053.038-.055.038-.055.038-.058.037-.058.037-.06.037-.06.036-.062.036-.064.036-.064.036-.066.035-.067.035-.068.035-.069.035-.07.034-.071.034-.073.033-.074.033-.15.066-.155.064-.16.063-.163.061-.168.06-.172.059-.175.057-.18.056-.183.054-.187.053-.191.051-.194.05-.198.048-.201.046-.205.045-.208.043-.211.041-.214.04-.217.038-.22.036-.223.034-.225.032-.229.031-.231.028-.233.027-.236.024-.239.023-.241.02-.242.019-.246.016-.247.015-.249.012-.251.01-.253.008-.255.005-.256.004-.258.001-.258-.001-.256-.004-.255-.005-.253-.008-.251-.01-.249-.012-.247-.015-.245-.016-.243-.019-.241-.02-.238-.023-.236-.024-.234-.027-.231-.028-.228-.031-.226-.032-.223-.034-.22-.036-.217-.038-.214-.04-.211-.041-.208-.043-.204-.045-.201-.046-.198-.048-.195-.05-.19-.051-.187-.053-.184-.054-.179-.056-.176-.057-.172-.059-.167-.06-.164-.061-.159-.063-.155-.064-.151-.066-.074-.033-.072-.033-.072-.034-.07-.034-.069-.035-.068-.035-.067-.035-.066-.035-.064-.036-.063-.036-.062-.036-.061-.036-.06-.037-.058-.037-.057-.037-.056-.038-.055-.038-.053-.038-.052-.038-.051-.039-.049-.039-.049-.039-.046-.039-.046-.04-.044-.04-.043-.04-.041-.04-.04-.041-.039-.041-.037-.041-.036-.041-.034-.041-.033-.042-.032-.042-.03-.042-.029-.042-.027-.042-.026-.043-.024-.043-.023-.043-.021-.043-.02-.043-.018-.044-.017-.043-.015-.044-.013-.044-.012-.044-.011-.045-.009-.044-.007-.045-.006-.045-.004-.045-.002-.045-.001-.045v-17l.001-.045.002-.045.004-.045.006-.045.007-.045.009-.044.011-.045.012-.044.013-.044.015-.044.017-.043.018-.044.02-.043.021-.043.023-.043.024-.043.026-.043.027-.042.029-.042.03-.042.032-.042.033-.042.034-.041.036-.041.037-.041.039-.041.04-.041.041-.04.043-.04.044-.04.046-.04.046-.039.049-.039.049-.039.051-.039.052-.038.053-.038.055-.038.056-.038.057-.037.058-.037.06-.037.061-.036.062-.036.063-.036.064-.036.066-.035.067-.035.068-.035.069-.035.07-.034.072-.034.072-.033.074-.033.151-.066.155-.064.159-.063.164-.061.167-.06.172-.059.176-.057.179-.056.184-.054.187-.053.19-.051.195-.05.198-.048.201-.046.204-.045.208-.043.211-.041.214-.04.217-.038.22-.036.223-.034.226-.032.228-.031.231-.028.234-.027.236-.024.238-.023.241-.02.243-.019.245-.016.247-.015.249-.012.251-.01.253-.008.255-.005.256-.004.258-.001.258.001zm-9.258 20.499v.01l.001.021.003.021.004.022.005.021.006.022.007.022.009.023.01.022.011.023.012.023.013.023.015.023.016.024.017.023.018.024.019.024.021.024.022.025.023.024.024.025.052.049.056.05.061.051.066.051.07.051.075.051.079.052.084.052.088.052.092.052.097.052.102.051.105.052.11.052.114.051.119.051.123.051.127.05.131.05.135.05.139.048.144.049.147.047.152.047.155.047.16.045.163.045.167.043.171.043.176.041.178.041.183.039.187.039.19.037.194.035.197.035.202.033.204.031.209.03.212.029.216.027.219.025.222.024.226.021.23.02.233.018.236.016.24.015.243.012.246.01.249.008.253.005.256.004.259.001.26-.001.257-.004.254-.005.25-.008.247-.011.244-.012.241-.014.237-.016.233-.018.231-.021.226-.021.224-.024.22-.026.216-.027.212-.028.21-.031.205-.031.202-.034.198-.034.194-.036.191-.037.187-.039.183-.04.179-.04.175-.042.172-.043.168-.044.163-.045.16-.046.155-.046.152-.047.148-.048.143-.049.139-.049.136-.05.131-.05.126-.05.123-.051.118-.052.114-.051.11-.052.106-.052.101-.052.096-.052.092-.052.088-.053.083-.051.079-.052.074-.052.07-.051.065-.051.06-.051.056-.05.051-.05.023-.024.023-.025.021-.024.02-.024.019-.024.018-.024.017-.024.015-.023.014-.024.013-.023.012-.023.01-.023.01-.022.008-.022.006-.022.006-.022.004-.022.004-.021.001-.021.001-.021v-4.127l-.077.055-.08.053-.083.054-.085.053-.087.052-.09.052-.093.051-.095.05-.097.05-.1.049-.102.049-.105.048-.106.047-.109.047-.111.046-.114.045-.115.045-.118.044-.12.043-.122.042-.124.042-.126.041-.128.04-.13.04-.132.038-.134.038-.135.037-.138.037-.139.035-.142.035-.143.034-.144.033-.147.032-.148.031-.15.03-.151.03-.153.029-.154.027-.156.027-.158.026-.159.025-.161.024-.162.023-.163.022-.165.021-.166.02-.167.019-.169.018-.169.017-.171.016-.173.015-.173.014-.175.013-.175.012-.177.011-.178.01-.179.008-.179.008-.181.006-.182.005-.182.004-.184.003-.184.002h-.37l-.184-.002-.184-.003-.182-.004-.182-.005-.181-.006-.179-.008-.179-.008-.178-.01-.176-.011-.176-.012-.175-.013-.173-.014-.172-.015-.171-.016-.17-.017-.169-.018-.167-.019-.166-.02-.165-.021-.163-.022-.162-.023-.161-.024-.159-.025-.157-.026-.156-.027-.155-.027-.153-.029-.151-.03-.15-.03-.148-.031-.146-.032-.145-.033-.143-.034-.141-.035-.14-.035-.137-.037-.136-.037-.134-.038-.132-.038-.13-.04-.128-.04-.126-.041-.124-.042-.122-.042-.12-.044-.117-.043-.116-.045-.113-.045-.112-.046-.109-.047-.106-.047-.105-.048-.102-.049-.1-.049-.097-.05-.095-.05-.093-.052-.09-.051-.087-.052-.085-.053-.083-.054-.08-.054-.077-.054v4.127zm0-5.654v.011l.001.021.003.021.004.021.005.022.006.022.007.022.009.022.01.022.011.023.012.023.013.023.015.024.016.023.017.024.018.024.019.024.021.024.022.024.023.025.024.024.052.05.056.05.061.05.066.051.07.051.075.052.079.051.084.052.088.052.092.052.097.052.102.052.105.052.11.051.114.051.119.052.123.05.127.051.131.05.135.049.139.049.144.048.147.048.152.047.155.046.16.045.163.045.167.044.171.042.176.042.178.04.183.04.187.038.19.037.194.036.197.034.202.033.204.032.209.03.212.028.216.027.219.025.222.024.226.022.23.02.233.018.236.016.24.014.243.012.246.01.249.008.253.006.256.003.259.001.26-.001.257-.003.254-.006.25-.008.247-.01.244-.012.241-.015.237-.016.233-.018.231-.02.226-.022.224-.024.22-.025.216-.027.212-.029.21-.03.205-.032.202-.033.198-.035.194-.036.191-.037.187-.039.183-.039.179-.041.175-.042.172-.043.168-.044.163-.045.16-.045.155-.047.152-.047.148-.048.143-.048.139-.05.136-.049.131-.05.126-.051.123-.051.118-.051.114-.052.11-.052.106-.052.101-.052.096-.052.092-.052.088-.052.083-.052.079-.052.074-.051.07-.052.065-.051.06-.05.056-.051.051-.049.023-.025.023-.024.021-.025.02-.024.019-.024.018-.024.017-.024.015-.023.014-.023.013-.024.012-.022.01-.023.01-.023.008-.022.006-.022.006-.022.004-.021.004-.022.001-.021.001-.021v-4.139l-.077.054-.08.054-.083.054-.085.052-.087.053-.09.051-.093.051-.095.051-.097.05-.1.049-.102.049-.105.048-.106.047-.109.047-.111.046-.114.045-.115.044-.118.044-.12.044-.122.042-.124.042-.126.041-.128.04-.13.039-.132.039-.134.038-.135.037-.138.036-.139.036-.142.035-.143.033-.144.033-.147.033-.148.031-.15.03-.151.03-.153.028-.154.028-.156.027-.158.026-.159.025-.161.024-.162.023-.163.022-.165.021-.166.02-.167.019-.169.018-.169.017-.171.016-.173.015-.173.014-.175.013-.175.012-.177.011-.178.009-.179.009-.179.007-.181.007-.182.005-.182.004-.184.003-.184.002h-.37l-.184-.002-.184-.003-.182-.004-.182-.005-.181-.007-.179-.007-.179-.009-.178-.009-.176-.011-.176-.012-.175-.013-.173-.014-.172-.015-.171-.016-.17-.017-.169-.018-.167-.019-.166-.02-.165-.021-.163-.022-.162-.023-.161-.024-.159-.025-.157-.026-.156-.027-.155-.028-.153-.028-.151-.03-.15-.03-.148-.031-.146-.033-.145-.033-.143-.033-.141-.035-.14-.036-.137-.036-.136-.037-.134-.038-.132-.039-.13-.039-.128-.04-.126-.041-.124-.042-.122-.043-.12-.043-.117-.044-.116-.044-.113-.046-.112-.046-.109-.046-.106-.047-.105-.048-.102-.049-.1-.049-.097-.05-.095-.051-.093-.051-.09-.051-.087-.053-.085-.052-.083-.054-.08-.054-.077-.054v4.139zm0-5.666v.011l.001.02.003.022.004.021.005.022.006.021.007.022.009.023.01.022.011.023.012.023.013.023.015.023.016.024.017.024.018.023.019.024.021.025.022.024.023.024.024.025.052.05.056.05.061.05.066.051.07.051.075.052.079.051.084.052.088.052.092.052.097.052.102.052.105.051.11.052.114.051.119.051.123.051.127.05.131.05.135.05.139.049.144.048.147.048.152.047.155.046.16.045.163.045.167.043.171.043.176.042.178.04.183.04.187.038.19.037.194.036.197.034.202.033.204.032.209.03.212.028.216.027.219.025.222.024.226.021.23.02.233.018.236.017.24.014.243.012.246.01.249.008.253.006.256.003.259.001.26-.001.257-.003.254-.006.25-.008.247-.01.244-.013.241-.014.237-.016.233-.018.231-.02.226-.022.224-.024.22-.025.216-.027.212-.029.21-.03.205-.032.202-.033.198-.035.194-.036.191-.037.187-.039.183-.039.179-.041.175-.042.172-.043.168-.044.163-.045.16-.045.155-.047.152-.047.148-.048.143-.049.139-.049.136-.049.131-.051.126-.05.123-.051.118-.052.114-.051.11-.052.106-.052.101-.052.096-.052.092-.052.088-.052.083-.052.079-.052.074-.052.07-.051.065-.051.06-.051.056-.05.051-.049.023-.025.023-.025.021-.024.02-.024.019-.024.018-.024.017-.024.015-.023.014-.024.013-.023.012-.023.01-.022.01-.023.008-.022.006-.022.006-.022.004-.022.004-.021.001-.021.001-.021v-4.153l-.077.054-.08.054-.083.053-.085.053-.087.053-.09.051-.093.051-.095.051-.097.05-.1.049-.102.048-.105.048-.106.048-.109.046-.111.046-.114.046-.115.044-.118.044-.12.043-.122.043-.124.042-.126.041-.128.04-.13.039-.132.039-.134.038-.135.037-.138.036-.139.036-.142.034-.143.034-.144.033-.147.032-.148.032-.15.03-.151.03-.153.028-.154.028-.156.027-.158.026-.159.024-.161.024-.162.023-.163.023-.165.021-.166.02-.167.019-.169.018-.169.017-.171.016-.173.015-.173.014-.175.013-.175.012-.177.01-.178.01-.179.009-.179.007-.181.006-.182.006-.182.004-.184.003-.184.001-.185.001-.185-.001-.184-.001-.184-.003-.182-.004-.182-.006-.181-.006-.179-.007-.179-.009-.178-.01-.176-.01-.176-.012-.175-.013-.173-.014-.172-.015-.171-.016-.17-.017-.169-.018-.167-.019-.166-.02-.165-.021-.163-.023-.162-.023-.161-.024-.159-.024-.157-.026-.156-.027-.155-.028-.153-.028-.151-.03-.15-.03-.148-.032-.146-.032-.145-.033-.143-.034-.141-.034-.14-.036-.137-.036-.136-.037-.134-.038-.132-.039-.13-.039-.128-.041-.126-.041-.124-.041-.122-.043-.12-.043-.117-.044-.116-.044-.113-.046-.112-.046-.109-.046-.106-.048-.105-.048-.102-.048-.1-.05-.097-.049-.095-.051-.093-.051-.09-.052-.087-.052-.085-.053-.083-.053-.08-.054-.077-.054v4.153zm8.74-8.179l-.257.004-.254.005-.25.008-.247.011-.244.012-.241.014-.237.016-.233.018-.231.021-.226.022-.224.023-.22.026-.216.027-.212.028-.21.031-.205.032-.202.033-.198.034-.194.036-.191.038-.187.038-.183.04-.179.041-.175.042-.172.043-.168.043-.163.045-.16.046-.155.046-.152.048-.148.048-.143.048-.139.049-.136.05-.131.05-.126.051-.123.051-.118.051-.114.052-.11.052-.106.052-.101.052-.096.052-.092.052-.088.052-.083.052-.079.052-.074.051-.07.052-.065.051-.06.05-.056.05-.051.05-.023.025-.023.024-.021.024-.02.025-.019.024-.018.024-.017.023-.015.024-.014.023-.013.023-.012.023-.01.023-.01.022-.008.022-.006.023-.006.021-.004.022-.004.021-.001.021-.001.021.001.021.001.021.004.021.004.022.006.021.006.023.008.022.01.022.01.023.012.023.013.023.014.023.015.024.017.023.018.024.019.024.02.025.021.024.023.024.023.025.051.05.056.05.06.05.065.051.07.052.074.051.079.052.083.052.088.052.092.052.096.052.101.052.106.052.11.052.114.052.118.051.123.051.126.051.131.05.136.05.139.049.143.048.148.048.152.048.155.046.16.046.163.045.168.043.172.043.175.042.179.041.183.04.187.038.191.038.194.036.198.034.202.033.205.032.21.031.212.028.216.027.22.026.224.023.226.022.231.021.233.018.237.016.241.014.244.012.247.011.25.008.254.005.257.004.26.001.26-.001.257-.004.254-.005.25-.008.247-.011.244-.012.241-.014.237-.016.233-.018.231-.021.226-.022.224-.023.22-.026.216-.027.212-.028.21-.031.205-.032.202-.033.198-.034.194-.036.191-.038.187-.038.183-.04.179-.041.175-.042.172-.043.168-.043.163-.045.16-.046.155-.046.152-.048.148-.048.143-.048.139-.049.136-.05.131-.05.126-.051.123-.051.118-.051.114-.052.11-.052.106-.052.101-.052.096-.052.092-.052.088-.052.083-.052.079-.052.074-.051.07-.052.065-.051.06-.05.056-.05.051-.05.023-.025.023-.024.021-.024.02-.025.019-.024.018-.024.017-.023.015-.024.014-.023.013-.023.012-.023.01-.023.01-.022.008-.022.006-.023.006-.021.004-.022.004-.021.001-.021.001-.021-.001-.021-.001-.021-.004-.021-.004-.022-.006-.021-.006-.023-.008-.022-.01-.022-.01-.023-.012-.023-.013-.023-.014-.023-.015-.024-.017-.023-.018-.024-.019-.024-.02-.025-.021-.024-.023-.024-.023-.025-.051-.05-.056-.05-.06-.05-.065-.051-.07-.052-.074-.051-.079-.052-.083-.052-.088-.052-.092-.052-.096-.052-.101-.052-.106-.052-.11-.052-.114-.052-.118-.051-.123-.051-.126-.051-.131-.05-.136-.05-.139-.049-.143-.048-.148-.048-.152-.048-.155-.046-.16-.046-.163-.045-.168-.043-.172-.043-.175-.042-.179-.041-.183-.04-.187-.038-.191-.038-.194-.036-.198-.034-.202-.033-.205-.032-.21-.031-.212-.028-.216-.027-.22-.026-.224-.023-.226-.022-.231-.021-.233-.018-.237-.016-.241-.014-.244-.012-.247-.011-.25-.008-.254-.005-.257-.004-.26-.001-.26.001z"></path></symbol></defs><defs><symbol id="clock" width="24" height="24"><path transform="scale(.5)" d="M12 2c5.514 0 10 4.486 10 10s-4.486 10-10 10-10-4.486-10-10 4.486-10 10-10zm0-2c-6.627 0-12 5.373-12 12s5.373 12 12 12 12-5.373 12-12-5.373-12-12-12zm5.848 12.459c.202.038.202.333.001.372-1.907.361-6.045 1.111-6.547 1.111-.719 0-1.301-.582-1.301-1.301 0-.512.77-5.447 1.125-7.445.034-.192.312-.181.343.014l.985 6.238 5.394 1.011z"></path></symbol></defs><defs><marker id="arrowhead" refX="7.9" refY="5" markerUnits="userSpaceOnUse" markerWidth="12" markerHeight="12" orient="auto-start-reverse"><path d="M -1 0 L 10 5 L 0 10 z"></path></marker></defs><defs><marker id="crosshead" markerWidth="15" markerHeight="8" orient="auto" refX="4" refY="4.5"><path fill="none" stroke="#000000" stroke-width="1pt" d="M 1,2 L 6,7 M 6,2 L 1,7" style="stroke-dasharray: 0, 0;"></path></marker></defs><defs><marker id="filled-head" refX="15.5" refY="7" markerWidth="20" markerHeight="28" orient="auto"><path d="M 18,7 L9,13 L14,7 L9,1 Z"></path></marker></defs><defs><marker id="sequencenumber" refX="15" refY="15" markerWidth="60" markerHeight="40" orient="auto"><circle cx="15" cy="15" r="6"></circle></marker></defs><g id="viewport-20251224225758487" class="svg-pan-zoom_viewport" transform="matrix(0.35876139989797623,0,0,0.35876139989797623,212.5845901828676,7.367180847748472)" style="transform: matrix(0.358761, 0, 0, 0.358761, 212.585, 7.36718);"><g><rect x="1714.5" y="1984" fill="#eaeaea" stroke="#666" width="155" height="65" name="UserSvc" rx="3" ry="3" class="actor actor-bottom"></rect><text x="1792" y="2016.5" dominant-baseline="central" alignment-baseline="central" class="actor actor-box" style="text-anchor: middle; font-size: 16px; font-weight: 400;"><tspan x="1792" dy="0">👥 User Service</tspan></text></g><g><rect x="1361" y="1984" fill="#eaeaea" stroke="#666" width="156" height="65" name="Book" rx="3" ry="3" class="actor actor-bottom"></rect><text x="1439" y="2016.5" dominant-baseline="central" alignment-baseline="central" class="actor actor-box" style="text-anchor: middle; font-size: 16px; font-weight: 400;"><tspan x="1439" dy="0">📖 Book Service</tspan></text></g><g><rect x="963" y="1984" fill="#eaeaea" stroke="#666" width="254" height="65" name="Kafka" rx="3" ry="3" class="actor actor-bottom"></rect><text x="1090" y="2016.5" dominant-baseline="central" alignment-baseline="central" class="actor actor-box" style="text-anchor: middle; font-size: 16px; font-weight: 400;"><tspan x="1090" dy="0">⚡ Kafka (Message Broker)</tspan></text></g><g><rect x="641.5" y="1984" fill="#eaeaea" stroke="#666" width="179" height="65" name="Borrow" rx="3" ry="3" class="actor actor-bottom"></rect><text x="731" y="2016.5" dominant-baseline="central" alignment-baseline="central" class="actor actor-box" style="text-anchor: middle; font-size: 16px; font-weight: 400;"><tspan x="731" dy="0">🔄 Borrow Service</tspan></text></g><g><rect x="370" y="1984" fill="#eaeaea" stroke="#666" width="164" height="65" name="Gateway" rx="3" ry="3" class="actor actor-bottom"></rect><text x="452" y="2016.5" dominant-baseline="central" alignment-baseline="central" class="actor actor-box" style="text-anchor: middle; font-size: 16px; font-weight: 400;"><tspan x="452" dy="0">🚪 API Gateway</tspan></text></g><g><rect x="0" y="1984" fill="#eaeaea" stroke="#666" width="150" height="65" name="Client" rx="3" ry="3" class="actor actor-bottom"></rect><text x="75" y="2016.5" dominant-baseline="central" alignment-baseline="central" class="actor actor-box" style="text-anchor: middle; font-size: 16px; font-weight: 400;"><tspan x="75" dy="0">👤 User</tspan></text></g><g><line id="actor123" x1="1792" y1="65" x2="1792" y2="1984" class="actor-line 200" stroke-width="0.5px" stroke="#999" name="UserSvc"></line><g id="root-123"><rect x="1714.5" y="0" fill="#eaeaea" stroke="#666" width="155" height="65" name="UserSvc" rx="3" ry="3" class="actor actor-top"></rect><text x="1792" y="32.5" dominant-baseline="central" alignment-baseline="central" class="actor actor-box" style="text-anchor: middle; font-size: 16px; font-weight: 400;"><tspan x="1792" dy="0">👥 User Service</tspan></text></g></g><g><line id="actor122" x1="1439" y1="65" x2="1439" y2="1984" class="actor-line 200" stroke-width="0.5px" stroke="#999" name="Book"></line><g id="root-122"><rect x="1361" y="0" fill="#eaeaea" stroke="#666" width="156" height="65" name="Book" rx="3" ry="3" class="actor actor-top"></rect><text x="1439" y="32.5" dominant-baseline="central" alignment-baseline="central" class="actor actor-box" style="text-anchor: middle; font-size: 16px; font-weight: 400;"><tspan x="1439" dy="0">📖 Book Service</tspan></text></g></g><g><line id="actor121" x1="1090" y1="65" x2="1090" y2="1984" class="actor-line 200" stroke-width="0.5px" stroke="#999" name="Kafka"></line><g id="root-121"><rect x="963" y="0" fill="#eaeaea" stroke="#666" width="254" height="65" name="Kafka" rx="3" ry="3" class="actor actor-top"></rect><text x="1090" y="32.5" dominant-baseline="central" alignment-baseline="central" class="actor actor-box" style="text-anchor: middle; font-size: 16px; font-weight: 400;"><tspan x="1090" dy="0">⚡ Kafka (Message Broker)</tspan></text></g></g><g><line id="actor120" x1="731" y1="65" x2="731" y2="1984" class="actor-line 200" stroke-width="0.5px" stroke="#999" name="Borrow"></line><g id="root-120"><rect x="641.5" y="0" fill="#eaeaea" stroke="#666" width="179" height="65" name="Borrow" rx="3" ry="3" class="actor actor-top"></rect><text x="731" y="32.5" dominant-baseline="central" alignment-baseline="central" class="actor actor-box" style="text-anchor: middle; font-size: 16px; font-weight: 400;"><tspan x="731" dy="0">🔄 Borrow Service</tspan></text></g></g><g><line id="actor119" x1="452" y1="65" x2="452" y2="1984" class="actor-line 200" stroke-width="0.5px" stroke="#999" name="Gateway"></line><g id="root-119"><rect x="370" y="0" fill="#eaeaea" stroke="#666" width="164" height="65" name="Gateway" rx="3" ry="3" class="actor actor-top"></rect><text x="452" y="32.5" dominant-baseline="central" alignment-baseline="central" class="actor actor-box" style="text-anchor: middle; font-size: 16px; font-weight: 400;"><tspan x="452" dy="0">🚪 API Gateway</tspan></text></g></g><g><line id="actor118" x1="75" y1="65" x2="75" y2="1984" class="actor-line 200" stroke-width="0.5px" stroke="#999" name="Client"></line><g id="root-118"><rect x="0" y="0" fill="#eaeaea" stroke="#666" width="150" height="65" name="Client" rx="3" ry="3" class="actor actor-top"></rect><text x="75" y="32.5" dominant-baseline="central" alignment-baseline="central" class="actor actor-box" style="text-anchor: middle; font-size: 16px; font-weight: 400;"><tspan x="75" dy="0">👤 User</tspan></text></g></g><style>#graph-67{font-family:"trebuchet ms",verdana,arial,sans-serif;font-size:16px;fill:#333;}@keyframes edge-animation-frame{from{stroke-dashoffset:0;}}@keyframes dash{to{stroke-dashoffset:0;}}#graph-67 .edge-animation-slow{stroke-dasharray:9,5!important;stroke-dashoffset:900;animation:dash 50s linear infinite;stroke-linecap:round;}#graph-67 .edge-animation-fast{stroke-dasharray:9,5!important;stroke-dashoffset:900;animation:dash 20s linear infinite;stroke-linecap:round;}#graph-67 .error-icon{fill:#552222;}#graph-67 .error-text{fill:#552222;stroke:#552222;}#graph-67 .edge-thickness-normal{stroke-width:1px;}#graph-67 .edge-thickness-thick{stroke-width:3.5px;}#graph-67 .edge-pattern-solid{stroke-dasharray:0;}#graph-67 .edge-thickness-invisible{stroke-width:0;fill:none;}#graph-67 .edge-pattern-dashed{stroke-dasharray:3;}#graph-67 .edge-pattern-dotted{stroke-dasharray:2;}#graph-67 .marker{fill:#333333;stroke:#333333;}#graph-67 .marker.cross{stroke:#333333;}#graph-67 svg{font-family:"trebuchet ms",verdana,arial,sans-serif;font-size:16px;}#graph-67 p{margin:0;}#graph-67 .actor{stroke:hsl(259.6261682243, 59.7765363128%, 87.9019607843%);fill:#ECECFF;}#graph-67 text.actor&gt;tspan{fill:black;stroke:none;}#graph-67 .actor-line{stroke:hsl(259.6261682243, 59.7765363128%, 87.9019607843%);}#graph-67 .innerArc{stroke-width:1.5;stroke-dasharray:none;}#graph-67 .messageLine0{stroke-width:1.5;stroke-dasharray:none;stroke:#333;}#graph-67 .messageLine1{stroke-width:1.5;stroke-dasharray:2,2;stroke:#333;}#graph-67 #arrowhead path{fill:#333;stroke:#333;}#graph-67 .sequenceNumber{fill:white;}#graph-67 #sequencenumber{fill:#333;}#graph-67 #crosshead path{fill:#333;stroke:#333;}#graph-67 .messageText{fill:#333;stroke:none;}#graph-67 .labelBox{stroke:hsl(259.6261682243, 59.7765363128%, 87.9019607843%);fill:#ECECFF;}#graph-67 .labelText,#graph-67 .labelText&gt;tspan{fill:black;stroke:none;}#graph-67 .loopText,#graph-67 .loopText&gt;tspan{fill:black;stroke:none;}#graph-67 .loopLine{stroke-width:2px;stroke-dasharray:2,2;stroke:hsl(259.6261682243, 59.7765363128%, 87.9019607843%);fill:hsl(259.6261682243, 59.7765363128%, 87.9019607843%);}#graph-67 .note{stroke:#aaaa33;fill:#fff5ad;}#graph-67 .noteText,#graph-67 .noteText&gt;tspan{fill:black;stroke:none;}#graph-67 .activation0{fill:#f4f4f4;stroke:#666;}#graph-67 .activation1{fill:#f4f4f4;stroke:#666;}#graph-67 .activation2{fill:#f4f4f4;stroke:#666;}#graph-67 .actorPopupMenu{position:absolute;}#graph-67 .actorPopupMenuPanel{position:absolute;fill:#ECECFF;box-shadow:0px 8px 16px 0px rgba(0,0,0,0.2);filter:drop-shadow(3px 5px 2px rgb(0 0 0 / 0.4));}#graph-67 .actor-man line{stroke:hsl(259.6261682243, 59.7765363128%, 87.9019607843%);fill:#ECECFF;}#graph-67 .actor-man circle,#graph-67 line{stroke:hsl(259.6261682243, 59.7765363128%, 87.9019607843%);fill:#ECECFF;stroke-width:2px;}#graph-67 :root{--mermaid-font-family:"trebuchet ms",verdana,arial,sans-serif;}</style><g></g><g><rect x="50" y="75" fill="#EDF2AE" stroke="#666" width="1767" height="39" class="note"></rect><text x="934" y="80" text-anchor="middle" dominant-baseline="middle" alignment-baseline="middle" class="noteText" dy="1em" style="font-size: 16px; font-weight: 400;"><tspan x="934">LOAN / RESERVATION PROCESS</tspan></text></g><g><rect x="1464" y="529" fill="#EDF2AE" stroke="#666" width="297" height="39" class="note"></rect><text x="1613" y="534" text-anchor="middle" dominant-baseline="middle" alignment-baseline="middle" class="noteText" dy="1em" style="font-size: 16px; font-weight: 400;"><tspan x="1613">DB: books table (stock = stock - 1)</tspan></text></g><g><line x1="64" y1="304" x2="1771" y2="304" class="loopLine"></line><line x1="1771" y1="304" x2="1771" y2="803" class="loopLine"></line><line x1="64" y1="803" x2="1771" y2="803" class="loopLine"></line><line x1="64" y1="304" x2="64" y2="803" class="loopLine"></line><line x1="64" y1="583" x2="1771" y2="583" class="loopLine" style="stroke-dasharray: 3, 3;"></line><polygon points="64,304 114,304 114,317 105.6,324 64,324" class="labelBox"></polygon><text x="89" y="317" text-anchor="middle" dominant-baseline="middle" alignment-baseline="middle" class="labelText" style="font-size: 16px; font-weight: 400;">alt</text><text x="942.5" y="322" text-anchor="middle" class="loopText" style="font-size: 16px; font-weight: 400;"><tspan x="942.5">[Stock &gt; 0]</tspan></text><text x="917.5" y="601" text-anchor="middle" class="loopText" style="font-size: 16px; font-weight: 400;">[Stock == 0]</text></g><g><rect x="50" y="813" fill="#EDF2AE" stroke="#666" width="1767" height="39" class="note"></rect><text x="934" y="818" text-anchor="middle" dominant-baseline="middle" alignment-baseline="middle" class="noteText" dy="1em" style="font-size: 16px; font-weight: 400;"><tspan x="934">RETURN &amp; AUTO-FULFILL PROCESS</tspan></text></g><g><line x1="574" y1="1042" x2="1996" y2="1042" class="loopLine"></line><line x1="1996" y1="1042" x2="1996" y2="1377" class="loopLine"></line><line x1="574" y1="1377" x2="1996" y2="1377" class="loopLine"></line><line x1="574" y1="1042" x2="574" y2="1377" class="loopLine"></line><polygon points="574,1042 624,1042 624,1055 615.6,1062 574,1062" class="labelBox"></polygon><text x="599" y="1055" text-anchor="middle" dominant-baseline="middle" alignment-baseline="middle" class="labelText" style="font-size: 16px; font-weight: 400;">alt</text><text x="1310" y="1060" text-anchor="middle" class="loopText" style="font-size: 16px; font-weight: 400;"><tspan x="1310">[If Late (return_date &gt; due_date)]</tspan></text></g><g><rect x="1464" y="1487" fill="#EDF2AE" stroke="#666" width="303" height="39" class="note"></rect><text x="1616" y="1492" text-anchor="middle" dominant-baseline="middle" alignment-baseline="middle" class="noteText" dy="1em" style="font-size: 16px; font-weight: 400;"><tspan x="1616">DB: books table (stock = stock + 1)</tspan></text></g><g><rect x="606.5" y="1586" fill="#EDF2AE" stroke="#666" width="249" height="39" class="note"></rect><text x="731" y="1591" text-anchor="middle" dominant-baseline="middle" alignment-baseline="middle" class="noteText" dy="1em" style="font-size: 16px; font-weight: 400;"><tspan x="731">Event Driven Auto-Fulfill</tspan></text></g><g><rect x="527" y="1925" fill="#EDF2AE" stroke="#666" width="179" height="39" class="note"></rect><text x="617" y="1930" text-anchor="middle" dominant-baseline="middle" alignment-baseline="middle" class="noteText" dy="1em" style="font-size: 16px; font-weight: 400;"><tspan x="617">Ready for Pickup!</tspan></text></g><text x="262" y="129" text-anchor="middle" dominant-baseline="middle" alignment-baseline="middle" class="messageText" dy="1em" style="font-size: 16px; font-weight: 400;">POST /api/v1/loans</text><line x1="76" y1="164" x2="448" y2="164" class="messageLine0" stroke-width="2" stroke="none" marker-end="url(#arrowhead)" style="fill: none;"></line><line x1="76" y1="164" x2="76" y2="164" stroke-width="0" marker-start="url(#sequencenumber)"></line><text x="76" y="168" font-family="sans-serif" font-size="12px" text-anchor="middle" class="sequenceNumber">1</text><text x="590" y="179" text-anchor="middle" dominant-baseline="middle" alignment-baseline="middle" class="messageText" dy="1em" style="font-size: 16px; font-weight: 400;">Route to Borrow Service</text><line x1="453" y1="214" x2="727" y2="214" class="messageLine0" stroke-width="2" stroke="none" marker-end="url(#arrowhead)" style="fill: none;"></line><line x1="453" y1="214" x2="453" y2="214" stroke-width="0" marker-start="url(#sequencenumber)"></line><text x="453" y="218" font-family="sans-serif" font-size="12px" text-anchor="middle" class="sequenceNumber">2</text><text x="732" y="229" text-anchor="middle" dominant-baseline="middle" alignment-baseline="middle" class="messageText" dy="1em" style="font-size: 16px; font-weight: 400;">Check Read-Model Stock</text><path d="M 732,264 C 792,254 792,294 732,284" class="messageLine0" stroke-width="2" stroke="none" marker-end="url(#arrowhead)" style="fill: none;"></path><line x1="732" y1="264" x2="732" y2="264" stroke-width="0" marker-start="url(#sequencenumber)"></line><text x="732" y="268" font-family="sans-serif" font-size="12px" text-anchor="middle" class="sequenceNumber">3</text><text x="732" y="354" text-anchor="middle" dominant-baseline="middle" alignment-baseline="middle" class="messageText" dy="1em" style="font-size: 16px; font-weight: 400;">DB: Insert into LOANS (Status: BORROWED)</text><path d="M 732,389 C 792,379 792,419 732,409" class="messageLine0" stroke-width="2" stroke="none" marker-end="url(#arrowhead)" style="fill: none;"></path><line x1="732" y1="389" x2="732" y2="389" stroke-width="0" marker-start="url(#sequencenumber)"></line><text x="732" y="393" font-family="sans-serif" font-size="12px" text-anchor="middle" class="sequenceNumber">4</text><text x="909" y="434" text-anchor="middle" dominant-baseline="middle" alignment-baseline="middle" class="messageText" dy="1em" style="font-size: 16px; font-weight: 400;">Publish LoanCreatedEvent</text><line x1="732" y1="469" x2="1086" y2="469" class="messageLine0" stroke-width="2" stroke="none" marker-end="url(#arrowhead)" style="fill: none;"></line><line x1="732" y1="469" x2="732" y2="469" stroke-width="0" marker-start="url(#sequencenumber)"></line><text x="732" y="473" font-family="sans-serif" font-size="12px" text-anchor="middle" class="sequenceNumber">5</text><text x="1263" y="484" text-anchor="middle" dominant-baseline="middle" alignment-baseline="middle" class="messageText" dy="1em" style="font-size: 16px; font-weight: 400;">Consume: Decrease Actual Stock</text><line x1="1091" y1="519" x2="1435" y2="519" class="messageLine1" stroke-width="2" stroke="none" marker-end="url(#arrowhead)" style="stroke-dasharray: 3, 3; fill: none;"></line><line x1="1091" y1="519" x2="1091" y2="519" stroke-width="0" marker-start="url(#sequencenumber)"></line><text x="1091" y="523" font-family="sans-serif" font-size="12px" text-anchor="middle" class="sequenceNumber">6</text><text x="732" y="628" text-anchor="middle" dominant-baseline="middle" alignment-baseline="middle" class="messageText" dy="1em" style="font-size: 16px; font-weight: 400;">DB: Insert into RESERVATIONS (Status: ACTIVE)</text><path d="M 732,663 C 792,653 792,693 732,683" class="messageLine0" stroke-width="2" stroke="none" marker-end="url(#arrowhead)" style="fill: none;"></path><line x1="732" y1="663" x2="732" y2="663" stroke-width="0" marker-start="url(#sequencenumber)"></line><text x="732" y="667" font-family="sans-serif" font-size="12px" text-anchor="middle" class="sequenceNumber">7</text><text x="909" y="708" text-anchor="middle" dominant-baseline="middle" alignment-baseline="middle" class="messageText" dy="1em" style="font-size: 16px; font-weight: 400;">Publish ReservationCreatedEvent</text><line x1="732" y1="743" x2="1086" y2="743" class="messageLine0" stroke-width="2" stroke="none" marker-end="url(#arrowhead)" style="fill: none;"></line><line x1="732" y1="743" x2="732" y2="743" stroke-width="0" marker-start="url(#sequencenumber)"></line><text x="732" y="747" font-family="sans-serif" font-size="12px" text-anchor="middle" class="sequenceNumber">8</text><text x="405" y="758" text-anchor="middle" dominant-baseline="middle" alignment-baseline="middle" class="messageText" dy="1em" style="font-size: 16px; font-weight: 400;">202 Created (Reservation Info)</text><line x1="730" y1="793" x2="79" y2="793" class="messageLine1" stroke-width="2" stroke="none" marker-end="url(#arrowhead)" style="stroke-dasharray: 3, 3; fill: none;"></line><line x1="730" y1="793" x2="730" y2="793" stroke-width="0" marker-start="url(#sequencenumber)"></line><text x="730" y="797" font-family="sans-serif" font-size="12px" text-anchor="middle" class="sequenceNumber">9</text><text x="262" y="867" text-anchor="middle" dominant-baseline="middle" alignment-baseline="middle" class="messageText" dy="1em" style="font-size: 16px; font-weight: 400;">POST /api/v1/loans/{loanId}/return</text><line x1="76" y1="902" x2="448" y2="902" class="messageLine0" stroke-width="2" stroke="none" marker-end="url(#arrowhead)" style="fill: none;"></line><line x1="76" y1="902" x2="76" y2="902" stroke-width="0" marker-start="url(#sequencenumber)"></line><text x="76" y="906" font-family="sans-serif" font-size="12px" text-anchor="middle" class="sequenceNumber">10</text><text x="590" y="917" text-anchor="middle" dominant-baseline="middle" alignment-baseline="middle" class="messageText" dy="1em" style="font-size: 16px; font-weight: 400;">Route to Borrow Service</text><line x1="453" y1="952" x2="727" y2="952" class="messageLine0" stroke-width="2" stroke="none" marker-end="url(#arrowhead)" style="fill: none;"></line><line x1="453" y1="952" x2="453" y2="952" stroke-width="0" marker-start="url(#sequencenumber)"></line><text x="453" y="956" font-family="sans-serif" font-size="12px" text-anchor="middle" class="sequenceNumber">11</text><text x="732" y="967" text-anchor="middle" dominant-baseline="middle" alignment-baseline="middle" class="messageText" dy="1em" style="font-size: 16px; font-weight: 400;">DB: Update LOANS (Status: RETURNED, return_date: now)</text><path d="M 732,1002 C 792,992 792,1032 732,1022" class="messageLine0" stroke-width="2" stroke="none" marker-end="url(#arrowhead)" style="fill: none;"></path><line x1="732" y1="1002" x2="732" y2="1002" stroke-width="0" marker-start="url(#sequencenumber)"></line><text x="732" y="1006" font-family="sans-serif" font-size="12px" text-anchor="middle" class="sequenceNumber">12</text><text x="732" y="1092" text-anchor="middle" dominant-baseline="middle" alignment-baseline="middle" class="messageText" dy="1em" style="font-size: 16px; font-weight: 400;">DB: Insert into FINES (amount: X)</text><path d="M 732,1127 C 792,1117 792,1157 732,1147" class="messageLine0" stroke-width="2" stroke="none" marker-end="url(#arrowhead)" style="fill: none;"></path><line x1="732" y1="1127" x2="732" y2="1127" stroke-width="0" marker-start="url(#sequencenumber)"></line><text x="732" y="1131" font-family="sans-serif" font-size="12px" text-anchor="middle" class="sequenceNumber">13</text><text x="909" y="1172" text-anchor="middle" dominant-baseline="middle" alignment-baseline="middle" class="messageText" dy="1em" style="font-size: 16px; font-weight: 400;">Publish FineCreatedEvent</text><line x1="732" y1="1207" x2="1086" y2="1207" class="messageLine0" stroke-width="2" stroke="none" marker-end="url(#arrowhead)" style="fill: none;"></line><line x1="732" y1="1207" x2="732" y2="1207" stroke-width="0" marker-start="url(#sequencenumber)"></line><text x="732" y="1211" font-family="sans-serif" font-size="12px" text-anchor="middle" class="sequenceNumber">14</text><text x="1440" y="1222" text-anchor="middle" dominant-baseline="middle" alignment-baseline="middle" class="messageText" dy="1em" style="font-size: 16px; font-weight: 400;">Consume: FineCreated</text><line x1="1091" y1="1257" x2="1788" y2="1257" class="messageLine1" stroke-width="2" stroke="none" marker-end="url(#arrowhead)" style="stroke-dasharray: 3, 3; fill: none;"></line><line x1="1091" y1="1257" x2="1091" y2="1257" stroke-width="0" marker-start="url(#sequencenumber)"></line><text x="1091" y="1261" font-family="sans-serif" font-size="12px" text-anchor="middle" class="sequenceNumber">15</text><text x="1793" y="1272" text-anchor="middle" dominant-baseline="middle" alignment-baseline="middle" class="messageText" dy="1em" style="font-size: 16px; font-weight: 400;">DB: Update USERS (membership: BANNED)</text><path d="M 1793,1307 C 1853,1297 1853,1337 1793,1327" class="messageLine0" stroke-width="2" stroke="none" marker-end="url(#arrowhead)" style="fill: none;"></path><line x1="1793" y1="1307" x2="1793" y2="1307" stroke-width="0" marker-start="url(#sequencenumber)"></line><text x="1793" y="1311" font-family="sans-serif" font-size="12px" text-anchor="middle" class="sequenceNumber">16</text><text x="909" y="1392" text-anchor="middle" dominant-baseline="middle" alignment-baseline="middle" class="messageText" dy="1em" style="font-size: 16px; font-weight: 400;">Publish LoanReturnedEvent</text><line x1="732" y1="1427" x2="1086" y2="1427" class="messageLine0" stroke-width="2" stroke="none" marker-end="url(#arrowhead)" style="fill: none;"></line><line x1="732" y1="1427" x2="732" y2="1427" stroke-width="0" marker-start="url(#sequencenumber)"></line><text x="732" y="1431" font-family="sans-serif" font-size="12px" text-anchor="middle" class="sequenceNumber">17</text><text x="1263" y="1442" text-anchor="middle" dominant-baseline="middle" alignment-baseline="middle" class="messageText" dy="1em" style="font-size: 16px; font-weight: 400;">Consume: Increase Actual Stock</text><line x1="1091" y1="1477" x2="1435" y2="1477" class="messageLine1" stroke-width="2" stroke="none" marker-end="url(#arrowhead)" style="stroke-dasharray: 3, 3; fill: none;"></line><line x1="1091" y1="1477" x2="1091" y2="1477" stroke-width="0" marker-start="url(#sequencenumber)"></line><text x="1091" y="1481" font-family="sans-serif" font-size="12px" text-anchor="middle" class="sequenceNumber">18</text><text x="1266" y="1541" text-anchor="middle" dominant-baseline="middle" alignment-baseline="middle" class="messageText" dy="1em" style="font-size: 16px; font-weight: 400;">Publish BookStockChangedEvent</text><line x1="1438" y1="1576" x2="1094" y2="1576" class="messageLine0" stroke-width="2" stroke="none" marker-end="url(#arrowhead)" style="fill: none;"></line><line x1="1438" y1="1576" x2="1438" y2="1576" stroke-width="0" marker-start="url(#sequencenumber)"></line><text x="1438" y="1580" font-family="sans-serif" font-size="12px" text-anchor="middle" class="sequenceNumber">19</text><text x="912" y="1640" text-anchor="middle" dominant-baseline="middle" alignment-baseline="middle" class="messageText" dy="1em" style="font-size: 16px; font-weight: 400;">Consume: BookStockChanged</text><line x1="1089" y1="1675" x2="735" y2="1675" class="messageLine1" stroke-width="2" stroke="none" marker-end="url(#arrowhead)" style="stroke-dasharray: 3, 3; fill: none;"></line><line x1="1089" y1="1675" x2="1089" y2="1675" stroke-width="0" marker-start="url(#sequencenumber)"></line><text x="1089" y="1679" font-family="sans-serif" font-size="12px" text-anchor="middle" class="sequenceNumber">20</text><text x="732" y="1690" text-anchor="middle" dominant-baseline="middle" alignment-baseline="middle" class="messageText" dy="1em" style="font-size: 16px; font-weight: 400;">DB: Update Local Read-Model (stock: 1)</text><path d="M 732,1725 C 792,1715 792,1755 732,1745" class="messageLine0" stroke-width="2" stroke="none" marker-end="url(#arrowhead)" style="fill: none;"></path><line x1="732" y1="1725" x2="732" y2="1725" stroke-width="0" marker-start="url(#sequencenumber)"></line><text x="732" y="1729" font-family="sans-serif" font-size="12px" text-anchor="middle" class="sequenceNumber">21</text><text x="732" y="1770" text-anchor="middle" dominant-baseline="middle" alignment-baseline="middle" class="messageText" dy="1em" style="font-size: 16px; font-weight: 400;">DB: Find oldest ACTIVE Reservation</text><path d="M 732,1805 C 792,1795 792,1835 732,1825" class="messageLine0" stroke-width="2" stroke="none" marker-end="url(#arrowhead)" style="fill: none;"></path><line x1="732" y1="1805" x2="732" y2="1805" stroke-width="0" marker-start="url(#sequencenumber)"></line><text x="732" y="1809" font-family="sans-serif" font-size="12px" text-anchor="middle" class="sequenceNumber">22</text><text x="732" y="1850" text-anchor="middle" dominant-baseline="middle" alignment-baseline="middle" class="messageText" dy="1em" style="font-size: 16px; font-weight: 400;">DB: Update RESERVATION (Status: FULFILLED)</text><path d="M 732,1885 C 792,1875 792,1915 732,1905" class="messageLine0" stroke-width="2" stroke="none" marker-end="url(#arrowhead)" style="fill: none;"></path><line x1="732" y1="1885" x2="732" y2="1885" stroke-width="0" marker-start="url(#sequencenumber)"></line><text x="732" y="1889" font-family="sans-serif" font-size="12px" text-anchor="middle" class="sequenceNumber">23</text></g></svg>